<?xml version="1.0" standalone="no"?>
<!DOCTYPE svg PUBLIC "-//W3C//DTD SVG 20010904//EN"
 "http://www.w3.org/TR/2001/REC-SVG-20010904/DTD/svg10.dtd">
<svg version="1.0" xmlns="http://www.w3.org/2000/svg"
 width="511.000000pt" height="511.000000pt" viewBox="0 0 511.000000 511.000000"
 preserveAspectRatio="xMidYMid meet">
<metadata>
Created by potrace 1.14, written by Peter Selinger 2001-2017
</metadata>
<g transform="translate(0.000000,511.000000) scale(0.100000,-0.100000)"
fill="#000000" stroke="none">
<path d="M2309 5106 c-2 -2 -45 -7 -96 -10 -51 -3 -98 -8 -105 -10 -7 -3 -44
-7 -83 -11 -135 -11 -324 -39 -415 -61 -155 -38 -264 -122 -381 -296 -80 -121
-149 -261 -135 -275 2 -3 18 3 35 12 l31 16 0 -69 c0 -86 10 -162 21 -162 15
0 49 -39 49 -55 0 -9 11 -21 25 -27 27 -12 27 -11 27 -151 -1 -57 -5 -82 -15
-90 -13 -10 -16 -206 -21 -1467 -4 -800 -8 -1522 -10 -1605 -3 -82 -5 -184 -5
-226 l-1 -76 -40 -7 -41 -6 3 -57 3 -58 43 -15 c23 -9 39 -20 35 -25 -4 -4 -2
-5 4 -1 7 4 34 -2 59 -13 26 -12 53 -21 60 -21 8 0 15 -4 15 -10 1 -5 2 -16 3
-22 2 -13 -13 -28 -27 -28 -5 0 -5 5 -1 12 5 7 3 8 -5 3 -8 -5 -9 -11 -3 -17
15 -15 52 8 47 31 -3 14 1 18 17 13 14 -3 18 -11 14 -26 -5 -20 -5 -21 9 -2
15 20 15 20 31 0 8 -10 13 -14 10 -7 -7 14 31 5 41 -10 4 -6 1 -7 -7 -2 -9 6
-11 4 -5 -5 6 -10 4 -12 -8 -7 -19 7 -40 -16 -35 -39 2 -9 11 -18 21 -20 9 -1
15 2 11 7 -3 5 -10 7 -15 4 -5 -4 -9 3 -9 15 0 12 4 19 9 16 5 -3 20 4 35 15
14 11 26 15 26 9 0 -6 5 -8 10 -5 6 3 10 1 10 -5 0 -7 7 -10 15 -6 8 3 15 1
15 -4 0 -6 11 -10 25 -10 14 0 25 -5 25 -11 0 -6 6 -9 14 -6 7 3 23 -1 35 -9
11 -8 21 -13 21 -10 0 10 115 -38 128 -54 8 -8 11 -9 7 -2 -3 6 -1 12 4 12 6
0 11 -8 12 -17 0 -12 2 -13 6 -5 4 10 9 9 19 -5 13 -17 14 -17 8 2 -5 18 -4
18 8 4 7 -9 19 -14 26 -12 6 3 12 1 12 -5 0 -5 29 -9 64 -9 35 0 70 -4 77 -8
8 -5 10 -4 5 3 -5 9 8 12 43 12 30 0 51 -5 54 -12 4 -9 6 -7 6 3 1 12 11 15
39 14 20 0 42 3 49 8 15 11 36 -1 27 -15 -4 -7 -2 -8 5 -4 6 4 9 12 6 17 -4 5
5 8 19 7 15 -1 26 -5 26 -8 0 -3 14 -6 31 -6 20 -1 27 1 18 6 -7 5 -17 6 -21
4 -4 -3 -8 -1 -8 5 0 5 20 8 45 6 26 -3 45 0 45 6 0 6 5 7 10 4 6 -4 8 -11 5
-16 -4 -5 -1 -17 4 -26 9 -16 10 -15 8 7 -1 19 2 24 17 22 11 -2 15 1 11 7 -8
15 46 10 62 -5 7 -6 10 -14 8 -16 -3 -3 2 -5 10 -5 20 0 19 7 -2 23 -20 15
-18 16 62 18 22 1 45 4 50 8 6 3 36 5 67 4 31 -1 55 1 53 4 -2 4 21 6 51 5 29
0 54 2 54 6 0 4 9 7 20 6 11 -1 20 -5 20 -9 0 -4 5 -8 11 -8 5 0 8 4 5 8 -2 4
4 9 15 9 10 1 19 -3 19 -9 0 -6 -3 -8 -7 -5 -3 4 -12 2 -19 -4 -9 -7 -19 -7
-33 0 -20 11 -40 -2 -21 -14 6 -4 7 -11 4 -17 -4 -7 -2 -8 5 -4 6 4 8 12 5 18
-4 6 1 8 14 4 11 -4 23 -2 26 3 4 6 13 8 21 4 10 -3 15 1 15 14 0 15 8 19 43
21 23 1 70 4 103 6 34 2 66 6 70 9 5 2 28 4 52 3 23 -1 42 0 42 3 0 4 18 7 39
7 26 1 42 -3 45 -13 3 -8 10 -11 16 -8 5 3 10 1 10 -4 0 -6 5 -11 11 -11 8 0
8 5 -1 15 -7 8 -16 12 -21 9 -5 -3 -9 1 -9 8 0 9 18 14 58 15 31 1 74 4 96 8
24 4 44 1 54 -7 13 -11 14 -11 7 1 -6 11 -4 13 8 8 10 -3 17 -2 17 3 0 11 28
9 48 -4 7 -4 16 -5 19 -2 4 3 0 6 -8 6 -11 0 -12 2 -1 9 20 12 24 131 5 131
-8 0 -12 4 -8 9 3 5 0 13 -6 17 -8 5 -9 3 -4 -6 6 -9 0 -10 -26 -5 -19 4 -35
9 -37 10 -8 7 -14 745 -17 2100 -2 1288 -5 1490 -17 1493 -12 2 -14 24 -11
119 4 115 12 143 39 143 8 0 14 9 14 20 0 20 52 80 68 80 5 0 9 57 10 127 2
70 4 128 5 129 1 1 20 -4 42 -11 21 -8 41 -13 42 -11 16 16 -108 124 -250 219
-138 92 -324 182 -417 202 -8 2 -35 8 -60 14 -164 37 -317 53 -556 57 -127 2
-233 2 -235 0z"/>
<path d="M3855 441 c-3 -5 -2 -12 3 -15 5 -3 9 1 9 9 0 17 -3 19 -12 6z"/>
<path d="M3896 412 c-3 -5 1 -9 9 -9 8 0 12 4 9 9 -3 4 -7 8 -9 8 -2 0 -6 -4
-9 -8z"/>
<path d="M3776 383 c-6 -14 -5 -15 5 -6 7 7 10 15 7 18 -3 3 -9 -2 -12 -12z"/>
<path d="M3839 398 c-7 -23 -4 -35 7 -35 9 0 11 4 4 12 -5 7 -7 15 -3 18 3 4
3 7 0 7 -4 0 -7 -1 -8 -2z"/>
<path d="M4013 359 c-2 -23 3 -25 10 -4 4 8 3 16 -1 19 -4 3 -9 -4 -9 -15z"/>
<path d="M3798 363 c7 -3 16 -2 19 1 4 3 -2 6 -13 5 -11 0 -14 -3 -6 -6z"/>
<path d="M3870 346 c0 -2 8 -10 18 -17 15 -13 16 -12 3 4 -13 16 -21 21 -21
13z"/>
<path d="M1096 328 c3 -5 10 -6 15 -3 13 9 11 12 -6 12 -8 0 -12 -4 -9 -9z"/>
<path d="M1130 330 c0 -5 5 -10 11 -10 5 0 7 5 4 10 -3 6 -8 10 -11 10 -2 0
-4 -4 -4 -10z"/>
<path d="M1239 323 c-13 -16 -12 -17 4 -4 9 7 17 15 17 17 0 8 -8 3 -21 -13z"/>
<path d="M1275 332 c3 -3 -3 -15 -12 -26 -10 -12 -11 -16 -4 -9 10 9 20 9 35
2 19 -9 19 -9 4 4 -12 9 -14 17 -7 24 6 6 5 10 -6 10 -8 0 -13 -3 -10 -5z"/>
<path d="M3800 314 c-13 -32 -12 -34 2 -34 6 0 9 3 5 6 -3 3 -2 17 3 30 5 13
7 24 5 24 -3 0 -10 -12 -15 -26z"/>
<path d="M3856 317 c3 -10 9 -15 12 -12 3 3 0 11 -7 18 -10 9 -11 8 -5 -6z"/>
<path d="M4053 301 c0 -11 5 -18 9 -15 4 3 5 11 1 19 -7 21 -12 19 -10 -4z"/>
<path d="M4307 309 c7 -7 15 -10 18 -7 3 3 -2 9 -12 12 -14 6 -15 5 -6 -5z"/>
<path d="M1200 285 c-7 -9 -11 -17 -9 -20 3 -2 10 5 17 15 14 24 10 26 -8 5z"/>
<path d="M3945 290 c-3 -6 1 -7 9 -4 18 7 21 14 7 14 -6 0 -13 -4 -16 -10z"/>
<path d="M3855 279 c-4 -6 -14 -8 -24 -4 -13 5 -14 4 -3 -6 10 -11 15 -10 29
4 10 9 14 17 11 17 -4 0 -10 -5 -13 -11z"/>
<path d="M3893 277 c0 -8 6 -14 14 -14 9 0 10 4 2 14 -6 7 -12 13 -14 13 -1 0
-2 -6 -2 -13z"/>
<path d="M1019 278 c-5 -18 -6 -38 -1 -34 7 8 12 36 6 36 -2 0 -4 -1 -5 -2z"/>
<path d="M1219 263 c-13 -16 -12 -17 4 -4 16 13 21 21 13 21 -2 0 -10 -8 -17
-17z"/>
<path d="M1312 275 c4 -4 3 -14 -4 -22 -8 -11 -7 -12 6 -7 19 7 21 20 4 30 -7
4 -10 4 -6 -1z"/>
<path d="M1390 270 c0 -6 7 -10 15 -10 8 0 15 2 15 4 0 2 -7 6 -15 10 -8 3
-15 1 -15 -4z"/>
<path d="M1433 258 c-2 -18 0 -20 7 -8 12 18 13 30 2 30 -4 0 -9 -10 -9 -22z"/>
<path d="M3755 261 c-3 -5 -2 -12 3 -15 5 -3 9 1 9 9 0 17 -3 19 -12 6z"/>
<path d="M3787 257 c-3 -7 3 -13 14 -13 13 0 15 3 7 13 -6 7 -12 13 -13 13 -2
0 -5 -6 -8 -13z"/>
<path d="M1360 245 c-9 -10 -9 -15 -1 -15 6 0 11 5 11 11 0 5 5 7 12 3 7 -4 8
-3 4 4 -9 15 -11 15 -26 -3z"/>
<path d="M3676 245 c-9 -26 -7 -32 5 -12 6 10 9 21 6 23 -2 3 -7 -2 -11 -11z"/>
<path d="M4016 252 c-3 -5 1 -9 9 -9 8 0 12 4 9 9 -3 4 -7 8 -9 8 -2 0 -6 -4
-9 -8z"/>
<path d="M1510 242 c0 -15 11 -21 27 -15 12 5 12 7 1 14 -17 11 -28 11 -28 1z"/>
<path d="M3557 243 c-10 -10 -8 -23 4 -23 5 0 8 4 5 9 -4 5 0 12 6 14 7 3 8 6
2 6 -6 1 -14 -2 -17 -6z"/>
<path d="M3595 240 c-3 -5 -1 -10 4 -10 6 0 11 5 11 10 0 6 -2 10 -4 10 -3 0
-8 -4 -11 -10z"/>
<path d="M1059 238 c-5 -18 -6 -38 -1 -34 7 8 12 36 6 36 -2 0 -4 -1 -5 -2z"/>
<path d="M1280 230 c8 -5 20 -10 25 -10 6 0 3 5 -5 10 -8 5 -19 10 -25 10 -5
0 -3 -5 5 -10z"/>
<path d="M1400 230 c0 -5 5 -10 10 -10 6 0 10 5 10 10 0 6 -4 10 -10 10 -5 0
-10 -4 -10 -10z"/>
<path d="M1490 234 c0 -13 18 -39 24 -34 2 3 -2 14 -10 24 -8 11 -14 16 -14
10z"/>
<path d="M1567 229 c7 -7 15 -10 18 -7 3 3 -2 9 -12 12 -14 6 -15 5 -6 -5z"/>
<path d="M3468 228 c14 -18 47 -13 35 5 -5 8 -8 7 -11 -1 -3 -10 -7 -10 -20 0
-15 12 -15 11 -4 -4z"/>
<path d="M3864 232 c4 -3 14 -7 22 -8 9 -1 13 0 10 4 -4 3 -14 7 -22 8 -9 1
-13 0 -10 -4z"/>
<path d="M1606 217 c3 -10 9 -15 12 -12 3 3 0 11 -7 18 -10 9 -11 8 -5 -6z"/>
<path d="M3356 217 c-11 -8 -16 -21 -13 -33 4 -16 5 -16 6 4 0 13 5 21 10 18
5 -3 11 1 15 9 7 18 5 19 -18 2z"/>
<path d="M3390 208 c-12 -22 -12 -22 6 -6 10 10 15 20 12 24 -4 3 -12 -5 -18
-18z"/>
<path d="M1346 207 c3 -10 9 -15 12 -12 3 3 0 11 -7 18 -10 9 -11 8 -5 -6z"/>
<path d="M1535 210 c-3 -5 -3 -10 2 -11 4 0 -1 -5 -12 -10 l-20 -9 20 3 c11 2
19 9 18 15 -4 17 15 15 25 -4 8 -14 10 -14 22 1 11 13 10 15 -3 10 -8 -4 -18
-2 -22 4 -8 14 -22 14 -30 1z"/>
<path d="M1650 210 c0 -5 5 -10 11 -10 5 0 7 5 4 10 -3 6 -8 10 -11 10 -2 0
-4 -4 -4 -10z"/>
<path d="M3249 213 c-1 -5 -1 -12 0 -17 1 -5 -4 -13 -11 -17 -7 -4 -9 -11 -5
-15 4 -4 14 2 23 14 19 28 39 28 58 0 9 -12 16 -19 16 -14 0 4 -8 18 -18 31
-13 16 -23 21 -33 14 -19 -12 -32 -11 -24 1 3 6 4 10 1 10 -3 0 -7 -3 -7 -7z"/>
<path d="M3315 210 c3 -5 8 -10 11 -10 2 0 4 5 4 10 0 6 -5 10 -11 10 -5 0 -7
-4 -4 -10z"/>
<path d="M3588 213 c7 -3 16 -2 19 1 4 3 -2 6 -13 5 -11 0 -14 -3 -6 -6z"/>
<path d="M1633 184 c0 -17 2 -22 7 -13 5 6 6 18 3 26 -8 19 -10 16 -10 -13z"/>
<path d="M3141 193 c8 -9 8 -13 1 -13 -6 0 -14 4 -17 10 -7 11 -45 -8 -60 -30
-13 -20 -15 -41 -4 -34 5 3 7 9 4 14 -6 10 18 30 44 35 18 3 25 -4 23 -26 -1
-3 6 -6 13 -6 11 0 12 4 4 13 -7 8 -7 14 1 19 5 3 10 1 10 -6 0 -7 3 -9 6 -6
4 4 1 13 -6 22 -8 9 -8 15 -2 15 6 0 14 -4 17 -10 3 -5 16 -15 28 -21 12 -7
19 -8 15 -4 -4 5 -3 14 3 22 13 14 12 15 -48 17 -34 2 -40 0 -32 -11z m69 -3
c0 -5 -4 -10 -10 -10 -5 0 -10 5 -10 10 0 6 5 10 10 10 6 0 10 -4 10 -10z"/>
<path d="M3501 187 c-13 -21 -12 -21 5 -5 10 10 16 20 13 22 -3 3 -11 -5 -18
-17z"/>
<path d="M1210 189 c0 -5 5 -7 10 -4 6 3 10 8 10 11 0 2 -4 4 -10 4 -5 0 -10
-5 -10 -11z"/>
<path d="M1390 191 c0 -10 29 -36 34 -30 1 2 -6 12 -16 22 -10 9 -18 13 -18 8z"/>
<path d="M1430 190 c0 -6 4 -9 9 -6 5 4 12 1 14 -4 3 -6 4 -5 3 2 -3 15 -26
23 -26 8z"/>
<path d="M1704 193 c3 -4 1 -12 -5 -20 -9 -9 -8 -13 0 -13 6 0 11 4 11 9 0 5
8 11 18 13 13 3 12 5 -6 10 -13 4 -21 4 -18 1z"/>
<path d="M3042 175 c-7 -15 -17 -22 -26 -19 -18 7 -31 -12 -15 -22 8 -5 9 -3
4 6 -6 10 -4 12 8 7 11 -4 22 2 33 19 9 13 15 27 12 29 -3 3 -10 -6 -16 -20z"/>
<path d="M3420 190 c8 -5 20 -10 25 -10 6 0 3 5 -5 10 -8 5 -19 10 -25 10 -5
0 -3 -5 5 -10z"/>
<path d="M3530 196 c0 -2 7 -7 16 -10 8 -3 12 -2 9 4 -6 10 -25 14 -25 6z"/>
<path d="M3573 183 c0 -9 4 -10 14 -2 7 6 13 12 13 14 0 1 -6 2 -13 2 -8 0
-14 -6 -14 -14z"/>
<path d="M3770 196 c0 -2 7 -7 16 -10 8 -3 12 -2 9 4 -6 10 -25 14 -25 6z"/>
<path d="M1595 179 c-11 -16 -1 -19 13 -3 7 8 8 14 3 14 -5 0 -13 -5 -16 -11z"/>
<path d="M1662 177 c-12 -14 -12 -58 -1 -51 4 2 5 14 1 26 -4 16 -2 19 8 13 8
-5 11 -4 6 3 -3 5 0 13 6 15 8 4 9 6 2 6 -6 1 -16 -5 -22 -12z"/>
<path d="M1476 165 c-11 -8 -15 -15 -9 -15 6 0 16 7 23 15 16 19 11 19 -14 0z"/>
<path d="M2840 170 c-9 -6 -10 -10 -3 -10 6 0 15 5 18 10 8 12 4 12 -15 0z"/>
<path d="M2860 152 c-6 -14 -8 -27 -5 -30 3 -3 5 0 5 7 0 7 4 9 10 6 6 -3 7 1
4 9 -3 9 -1 16 5 16 6 0 11 -4 11 -10 0 -5 5 -10 11 -10 8 0 8 5 -1 15 -15 18
0 20 20 3 12 -11 12 -10 1 4 -17 23 -48 18 -61 -10z"/>
<path d="M3267 173 c-3 -5 5 -8 18 -8 13 0 21 3 18 8 -2 4 -10 7 -18 7 -8 0
-16 -3 -18 -7z"/>
<path d="M3398 173 c7 -3 16 -2 19 1 4 3 -2 6 -13 5 -11 0 -14 -3 -6 -6z"/>
<path d="M3636 172 c-3 -5 1 -9 9 -9 8 0 12 4 9 9 -3 4 -7 8 -9 8 -2 0 -6 -4
-9 -8z"/>
<path d="M1373 155 c0 -8 4 -12 9 -9 5 3 6 10 3 15 -9 13 -12 11 -12 -6z"/>
<path d="M1572 146 c1 -14 5 -23 9 -20 7 4 0 44 -7 44 -2 0 -3 -11 -2 -24z"/>
<path d="M1770 155 c0 -8 4 -15 8 -15 5 0 9 7 9 15 0 8 -4 15 -9 15 -4 0 -8
-7 -8 -15z"/>
<path d="M2705 160 c-2 -4 -24 -6 -49 -5 -37 2 -44 -1 -35 -11 6 -8 16 -11 22
-7 17 11 47 11 53 1 3 -5 15 -1 26 9 20 18 21 18 14 -7 -6 -25 -6 -25 5 -2 7
12 16 22 21 22 12 0 10 -14 -4 -30 -7 -8 -1 -4 15 10 21 18 30 21 39 12 7 -7
17 -12 23 -12 5 0 1 6 -10 13 -21 12 -113 18 -120 7z"/>
<path d="M3371 163 c-1 -17 16 -25 25 -12 4 7 3 9 -4 5 -5 -3 -13 0 -15 6 -4
9 -6 10 -6 1z"/>
<path d="M1720 152 c0 -5 7 -9 15 -9 8 0 12 4 9 9 -7 10 -24 10 -24 0z"/>
<path d="M3090 156 c0 -2 7 -7 16 -10 8 -3 12 -2 9 4 -6 10 -25 14 -25 6z"/>
<path d="M3188 153 c6 -2 9 -10 6 -15 -4 -7 -2 -8 5 -4 13 9 5 26 -12 25 -9 0
-8 -2 1 -6z"/>
<path d="M2550 141 c0 -6 4 -13 10 -16 6 -3 7 1 4 9 -7 18 -14 21 -14 7z"/>
<path d="M2970 141 c0 -6 4 -13 10 -16 6 -3 7 1 4 9 -7 18 -14 21 -14 7z"/>
<path d="M1470 136 c0 -2 7 -7 16 -10 8 -3 12 -2 9 4 -6 10 -25 14 -25 6z"/>
<path d="M2795 130 c3 -5 8 -10 11 -10 2 0 4 5 4 10 0 6 -5 10 -11 10 -5 0 -7
-4 -4 -10z"/>
<path d="M2915 131 c-3 -5 -2 -12 3 -15 5 -3 9 1 9 9 0 17 -3 19 -12 6z"/>
<path d="M3310 130 c0 -5 5 -10 11 -10 5 0 7 5 4 10 -3 6 -8 10 -11 10 -2 0
-4 -4 -4 -10z"/>
<path d="M2664 112 c23 -26 23 -26 23 -7 0 8 -3 13 -5 10 -3 -3 -12 1 -21 7
-10 8 -9 4 3 -10z"/>
</g>
</svg>
